<svg width="194" height="162" viewBox="0 0 194 162" fill="none" xmlns="http://www.w3.org/2000/svg">
<path d="M100.508 3.6565C86.3326 1.32471 75.289 0.217529 66.5435 0.217529C28.8945 0.217529 33.832 20.7172 14.4847 51.9811C-8.10588 88.4622 -5.51132 137.872 35.2076 147.383C61.2202 153.456 100.843 161.218 133.56 161.218C159.841 161.218 181.705 156.185 188.449 141.283C208.981 95.8434 161.273 13.6659 100.508 3.6565Z" fill="#DCEEFE"/>
<path d="M49.7183 25.8335H156.319V132.436H49.7183V25.8335Z" fill="white"/>
<path d="M75.7188 110.002L87.4614 91.1686L103.677 108.951L118.216 81.752L131.636 111.048V114.185H73.1074L75.7188 110.002Z" fill="#B8F3B8"/>
<path d="M133.499 98.7851C131.928 94.703 123.663 73.1969 122.025 69.372C121.622 68.4438 121.371 67.3366 120.94 66.2574C120.763 65.819 120.461 65.4422 120.072 65.1734C119.683 64.9046 119.223 64.7557 118.751 64.745C118.278 64.7343 117.812 64.8623 117.411 65.1132C117.011 65.3641 116.692 65.7268 116.495 66.1567V66.2071C115.986 67.3254 115.762 68.2984 115.248 69.4168C114.733 70.5351 114.13 71.2285 113.57 72.5035C112.855 74.058 112.452 75.5007 111.893 76.9154C109.052 83.799 105.585 90.6545 103.639 95.1839L102.454 98.1979L89.3974 82.3731L88.7599 81.6908L88.6201 81.5399C88.4659 81.3753 88.2809 81.2428 88.0754 81.1498C87.87 81.0569 87.6483 81.0053 87.4229 80.998C87.1976 80.9907 86.973 81.0279 86.762 81.1075C86.551 81.187 86.3578 81.3073 86.1933 81.4616C86.0512 81.5902 85.9337 81.7437 85.8466 81.9145L82.6538 87.9984C79.131 93.8587 74.6856 99.8196 71.4144 105.596C70.8105 106.614 70.2234 107.615 69.653 108.588C68.9373 110.125 68.4844 111.383 67.8189 112.468L67.2598 113.413L70.5589 115.393C71.8841 113.201 73.1814 110.919 74.5961 108.733L75.2112 107.883C75.8486 106.972 76.1338 105.803 76.7713 104.897C78.1463 102.914 79.3957 100.846 80.5121 98.7068C81.3118 97.1746 86.1709 88.731 87.7031 86.0637V86.0245L89.8839 88.4402L92.6462 92.3545L99.6861 100.888C100.402 101.648 101.073 102.336 101.598 102.862L101.805 103.068C101.97 103.233 102.165 103.364 102.38 103.454C102.595 103.543 102.825 103.589 103.058 103.589C103.291 103.589 103.521 103.543 103.736 103.454C103.951 103.364 104.146 103.233 104.31 103.068C104.487 102.889 104.626 102.676 104.719 102.442C105.328 100.826 105.837 99.4952 106.396 98.1476C107.889 94.7198 109.321 91.4821 110.405 88.3395C111.005 86.737 111.754 85.1944 112.642 83.7319C113.134 82.9155 113.677 81.9257 114.13 81.1261L118.547 71.5417L125.922 90.1401L128.355 95.43L129.401 98.5278C131.212 102.621 132.907 106.759 134.528 110.103C136.049 113.234 142.446 121.158 133.499 98.7851Z" fill="#4FD84F"/>
<path d="M150.783 112.088L147.948 111.758C145.268 111.601 142.58 111.719 139.924 112.11C137.559 111.887 128.461 112.474 125.648 112.507L121.885 112.054L110.702 112.177C108.269 112.114 105.835 112.275 103.432 112.658L102.996 112.686L102.56 112.658C100.157 112.275 97.7235 112.114 95.2908 112.177L84.1073 112.054L80.3441 112.507C77.5483 112.474 68.4282 111.887 66.0685 112.11C63.4109 111.719 60.7203 111.601 58.0388 111.758L55.2038 112.088C53.3529 112.172 51.4853 112.116 49.668 112.127V115.969H50.4396C51.4618 116.046 52.478 116.19 53.4815 116.399L62.8476 116.5L65.6435 116.187C68.4002 116.131 71.2352 116.824 73.8577 116.623C76.6536 116.405 79.3376 116.327 82.1782 116.349C84.2919 116.349 86.4111 116.349 88.7149 116.382C90.2575 116.07 91.845 116.049 93.3952 116.321C94.5677 115.995 95.7744 115.807 96.9907 115.762C98.3103 115.935 99.1603 116.259 100.262 116.109C100.877 116.025 102.32 116.545 102.946 116.494C103.578 116.545 105.015 116.025 105.63 116.109C106.748 116.259 107.581 115.935 108.907 115.762C110.121 115.807 111.326 115.995 112.496 116.321C114.047 116.049 115.634 116.07 117.177 116.382C119.481 116.382 121.6 116.382 123.719 116.349C126.554 116.349 129.249 116.405 132.04 116.623C134.656 116.824 137.491 116.131 140.248 116.187L143.072 116.5L152.433 116.399C153.436 116.19 154.452 116.046 155.474 115.969H156.246V112.127C154.501 112.116 152.634 112.172 150.783 112.088Z" fill="#FEA166"/>
<path d="M157.803 77.0741C157.803 72.103 157.696 44.032 157.663 35.1689C157.663 31.9704 157.618 28.7998 157.596 25.9144C157.594 25.7296 157.556 25.5469 157.484 25.3768C157.412 25.2067 157.307 25.0526 157.175 24.9232C157.043 24.7939 156.887 24.6918 156.715 24.623C156.544 24.5541 156.36 24.5198 156.176 24.522L141.078 24.6786L127.54 24.4046L96.0646 24.3655C88.1188 24.4941 81.8337 24.6674 75.1516 24.6898C66.121 24.7289 57.4929 24.7513 49.5695 24.9079H49.5247C49.3916 24.9101 49.2602 24.9386 49.1382 24.9919C49.0161 25.0452 48.9059 25.1222 48.8139 25.2185C48.7218 25.3147 48.6498 25.4282 48.6019 25.5525C48.554 25.6767 48.5313 25.8093 48.535 25.9424C48.5685 27.6199 48.5965 29.057 48.6245 30.4774C48.7307 34.5762 48.658 40.593 48.5182 45.0664C48.4511 47.7729 48.3728 50.9658 48.3057 53.566L48.2051 132.545C48.2043 132.724 48.2392 132.902 48.3075 133.067C48.3759 133.233 48.4765 133.383 48.6034 133.51C48.7303 133.636 48.881 133.736 49.0469 133.804C49.2127 133.871 49.3904 133.905 49.5695 133.904H80.7377L97.3731 133.641L106.773 133.736C119.572 133.574 132.366 133.485 142.856 133.278C147.777 133.177 156.774 132.718 155.935 132.305C155.521 132.098 152.664 131.891 145.669 131.695C138.673 131.499 127.563 131.304 110.597 131.214C102.355 131.136 70.7509 130.912 51.2358 130.868V104.385C51.2358 101.466 51.3532 98.2336 51.3476 94.8785C51.3476 91.3668 51.1967 88.5877 51.2023 85.0928C51.2078 81.5979 51.3868 79.1207 51.3924 75.1337C51.3924 70.2632 51.219 66.0582 51.1799 61.7133C51.068 49.1932 51.1016 36.4383 51.1351 27.5249C59.9756 27.5249 65.8973 27.5528 70.8348 27.5249L93.4812 27.2173L154.856 27.3012L155.169 47.0851V80.541C155.169 91.7527 155.231 102.797 155.376 113.113C155.516 123.1 155.723 132.735 156.002 132.327C156.282 131.919 156.679 130.918 157.059 122.441C157.272 117.671 157.467 107.236 157.685 97.9316C157.814 91.6464 157.864 84.0974 157.803 77.0741Z" fill="#47A9FF"/>
<path d="M181.503 63.2984C179.161 63.1251 177.282 63.0076 175.531 62.9182C171.455 62.7113 160.848 63.5053 179.865 65.6582C179.641 67.7551 179.412 70.1316 179.161 72.8548C178.601 78.6759 175.548 109.375 175.118 114.928C175.017 116.298 174.737 117.808 174.598 119.401C174.458 120.995 174.48 122.365 174.329 124.003C174.178 125.642 173.893 126.799 173.714 128.65C173.502 130.937 173.496 132.922 173.351 134.969C172.792 142.797 171.947 150.738 171.416 156.397L169.28 156.212L158.656 155.552L129.679 152.768L119.262 152.153C108.984 151.208 97.7731 149.916 88.0938 149.29C83.408 148.982 78.9346 148.814 79.2254 149.245C79.5161 149.675 80.1256 150.302 84.1684 151.118C86.4443 151.571 91.3258 152.181 95.6594 152.757C98.5783 153.142 102.068 153.456 105.305 153.646C107.615 153.78 120.61 154.837 124.714 155.167C128.628 155.485 132.481 155.726 136.104 155.977L142.423 156.833L157.168 158.22C160.904 158.427 163.878 158.527 166.999 158.779L172.747 159.243H172.775C173.086 159.266 173.394 159.165 173.631 158.962C173.868 158.758 174.014 158.469 174.038 158.158C174.279 155.127 174.458 152.393 174.559 149.771C174.681 147.483 174.925 145.204 175.291 142.943C175.487 141.685 175.688 140.192 175.85 138.978C177.528 121.353 179.149 103.917 180.693 87.5334C180.9 84.2063 181.045 81.908 181.179 79.7608C181.392 78.0217 181.582 76.4728 181.71 75.4327C181.996 71.5687 182.27 67.7048 182.516 64.5062V64.4671C182.53 64.1795 182.432 63.8974 182.244 63.6797C182.055 63.462 181.79 63.3254 181.503 63.2984Z" fill="#47A9FF"/>
<path d="M70.5524 50.4379C70.7155 50.0935 70.9023 49.761 71.1116 49.4426C71.9014 48.41 72.9163 47.5711 74.079 46.9897C75.2417 46.4083 76.5218 46.0998 77.8217 46.0875C78.7581 46.0071 79.7014 46.0731 80.6175 46.2832C81.99 46.7477 83.2216 47.554 84.1962 48.6262C85.1546 49.6642 85.8859 50.8907 86.3435 52.2273C86.7852 53.4351 86.9026 54.6933 87.1878 54.6094C87.3771 54.5492 87.5394 54.4245 87.6463 54.2571C87.873 53.8745 87.9927 53.4381 87.993 52.9934C88.0099 52.4496 87.9534 51.9061 87.8253 51.3773C87.6559 50.6757 87.4142 49.9936 87.1039 49.3419C86.6393 48.3712 85.9606 47.5185 85.1189 46.848C84.3579 46.2066 83.5179 45.6653 82.6194 45.2375C81.5911 44.752 80.4896 44.4403 79.3594 44.3149C78.1319 44.1907 76.892 44.295 75.7024 44.6224C74.5506 44.7461 73.4372 45.1083 72.4331 45.6859C71.429 46.2636 70.5562 47.044 69.8703 47.9775C69.2774 48.8638 68.8001 49.8222 68.45 50.8293C67.8935 52.2372 67.7255 53.7687 67.9635 55.2637C68.0474 55.8676 68.1704 56.7455 68.2598 57.4053C68.3295 57.8274 68.4286 58.2441 68.5562 58.6523C69.1027 59.9328 69.9033 61.0892 70.9096 62.0514C71.9158 63.0136 73.1068 63.7617 74.4104 64.2504C75.7141 64.7392 77.1033 64.9584 78.4941 64.8949C79.8849 64.8313 81.2483 64.4863 82.502 63.8807C82.9096 63.6511 83.3019 63.3952 83.6762 63.1146C83.9893 62.8574 84.2689 62.6337 84.515 62.3988L85.1301 61.9124C85.3146 61.7614 85.4544 61.6048 85.5774 61.493C86.7669 60.1213 87.5425 58.44 87.8141 56.6449C87.8501 56.1949 87.8046 55.7422 87.6799 55.3084C87.5457 54.8778 87.3612 54.5703 87.1654 54.5982C87.0648 54.5982 86.9641 54.7101 86.8635 54.9058C86.7379 55.2113 86.6278 55.523 86.5336 55.8396C86.38 56.3946 86.1933 56.9399 85.9744 57.4724C85.6354 58.2969 85.1838 59.0703 84.6324 59.7707C84.1552 60.3476 83.6022 60.8573 82.9884 61.2861C82.0758 61.9551 81.0373 62.4325 79.9353 62.6896C78.8342 62.9424 77.694 62.9747 76.5803 62.7847C75.8891 62.6725 75.2122 62.485 74.5617 62.2255C74.2189 62.0451 73.8899 61.8395 73.5776 61.6104C73.393 61.5097 73.2197 61.4259 73.0575 61.3252C72.8791 61.2325 72.7105 61.1219 72.5543 60.9953C72.2756 60.7008 72.016 60.3889 71.777 60.0615C71.4045 59.6736 71.0589 59.2607 70.7426 58.8257C70.0397 57.7434 69.6418 56.4916 69.5907 55.2022C69.5523 54.1415 69.6883 53.0817 69.9933 52.0651C70.1264 51.5059 70.3137 50.9609 70.5524 50.4379Z" fill="#47A9FF"/>
<path d="M77.7953 61.0627C81.4363 61.0627 84.3879 58.1111 84.3879 54.47C84.3879 50.8289 81.4363 47.8772 77.7953 47.8772C74.1543 47.8772 71.2026 50.8289 71.2026 54.47C71.2026 58.1111 74.1543 61.0627 77.7953 61.0627Z" fill="#C2E2FF"/>
</svg>
