<svg width="193" height="162" viewBox="0 0 193 162" fill="none" xmlns="http://www.w3.org/2000/svg">
<path d="M100.218 3.6565C86.0431 1.32471 74.9994 0.217529 66.254 0.217529C28.605 0.217529 33.5424 20.7172 14.1951 51.9811C-8.39543 88.4622 -5.80087 137.872 34.918 147.383C60.9307 153.456 100.554 161.218 133.271 161.218C159.552 161.218 181.415 156.185 188.159 141.283C208.692 95.8434 160.983 13.6659 100.218 3.6565Z" fill="#3E3E3E"/>
<path d="M49.4307 25.8325H156.031V132.435H49.4307V25.8325Z" fill="#313131"/>
<path d="M75.4287 110.001L87.1713 91.1676L103.387 108.95L117.926 81.751L131.346 111.047V114.184H72.8174L75.4287 110.001Z" fill="#C0FAC0"/>
<path d="M133.207 98.785C131.636 94.703 123.371 73.1968 121.733 69.372C121.33 68.4438 121.079 67.3366 120.648 66.2574C120.471 65.819 120.169 65.4422 119.78 65.1734C119.391 64.9046 118.931 64.7557 118.459 64.745C117.986 64.7343 117.52 64.8623 117.119 65.1132C116.718 65.3641 116.4 65.7268 116.203 66.1567V66.2071C115.694 67.3254 115.47 68.2984 114.956 69.4168C114.441 70.5351 113.838 71.2285 113.278 72.5035C112.563 74.058 112.16 75.5007 111.601 76.9154C108.76 83.799 105.293 90.6545 103.347 95.1839L102.162 98.1979L89.1054 82.373L88.4679 81.6908L88.3281 81.5399C88.1739 81.3753 87.9888 81.2428 87.7834 81.1498C87.578 81.0569 87.3563 81.0053 87.1309 80.998C86.9056 80.9907 86.681 81.0279 86.47 81.1075C86.259 81.187 86.0658 81.3073 85.9013 81.4616C85.7592 81.5902 85.6417 81.7437 85.5546 81.9145L82.3618 87.9984C78.839 93.8587 74.3936 99.8195 71.1224 105.596C70.5185 106.614 69.9314 107.615 69.361 108.588C68.6453 110.125 68.1924 111.383 67.5269 112.468L66.9678 113.413L70.2669 115.393C71.5921 113.201 72.8894 110.919 74.3041 108.733L74.9192 107.883C75.5566 106.971 75.8418 105.803 76.4793 104.897C77.8543 102.914 79.1037 100.846 80.2201 98.7068C81.0198 97.1746 85.8789 88.7309 87.4111 86.0636V86.0245L89.5919 88.4402L92.3542 92.3544L99.3941 100.888C100.11 101.648 100.781 102.336 101.306 102.861L101.513 103.068C101.678 103.233 101.873 103.364 102.088 103.454C102.303 103.543 102.533 103.589 102.766 103.589C102.999 103.589 103.229 103.543 103.444 103.454C103.659 103.364 103.854 103.233 104.018 103.068C104.195 102.889 104.334 102.676 104.427 102.442C105.036 100.826 105.545 99.4952 106.104 98.1476C107.597 94.7198 109.029 91.4821 110.113 88.3395C110.713 86.737 111.462 85.1944 112.35 83.7318C112.842 82.9154 113.385 81.9257 113.838 81.1261L118.255 71.5417L125.63 90.1401L128.063 95.4299L129.108 98.5278C130.92 102.621 132.615 106.759 134.236 110.103C135.757 113.234 142.154 121.158 133.207 98.785Z" fill="#34B634"/>
<path d="M150.49 112.087L147.655 111.757C144.975 111.6 142.287 111.718 139.631 112.109C137.266 111.886 128.168 112.473 125.355 112.506L121.592 112.053L110.409 112.176C107.976 112.113 105.542 112.274 103.139 112.657L102.703 112.685L102.267 112.657C99.8639 112.274 97.4305 112.113 94.9978 112.176L83.8144 112.053L80.0512 112.506C77.2553 112.473 68.1352 111.886 65.7755 112.109C63.1179 111.718 60.4274 111.6 57.7458 111.757L54.9108 112.087C53.0599 112.171 51.1923 112.115 49.375 112.126V115.968H50.1467C51.1689 116.045 52.185 116.189 53.1885 116.398L62.5547 116.499L65.3505 116.186C68.1072 116.13 70.9423 116.823 73.5648 116.622C76.3606 116.404 79.0447 116.326 81.8852 116.348C83.9989 116.348 86.1182 116.348 88.422 116.382C89.9645 116.069 91.552 116.048 93.1022 116.32C94.2747 115.994 95.4815 115.806 96.6977 115.761C98.0174 115.934 98.8673 116.259 99.9689 116.108C100.584 116.024 102.027 116.544 102.653 116.493C103.285 116.544 104.722 116.024 105.337 116.108C106.455 116.259 107.288 115.934 108.614 115.761C109.828 115.806 111.033 115.994 112.204 116.32C113.754 116.048 115.341 116.069 116.884 116.382C119.188 116.382 121.307 116.382 123.426 116.348C126.261 116.348 128.956 116.404 131.747 116.622C134.364 116.823 137.199 116.13 139.955 116.186L142.779 116.499L152.14 116.398C153.143 116.189 154.159 116.045 155.181 115.968H155.953V112.126C154.209 112.115 152.341 112.171 150.49 112.087Z" fill="#C05C2E"/>
<path d="M157.655 77.5521C157.655 72.581 157.549 44.51 157.516 35.6469C157.516 32.4484 157.471 29.2778 157.448 26.3924C157.447 26.2077 157.409 26.025 157.337 25.8549C157.265 25.6848 157.159 25.5306 157.027 25.4013C156.896 25.2719 156.739 25.1699 156.568 25.101C156.396 25.0322 156.213 24.9979 156.028 25.0001L140.93 25.1566L127.393 24.8827L95.9172 24.8435C87.9713 24.9721 81.6862 25.1455 75.0041 25.1678C65.9735 25.207 57.3455 25.2293 49.422 25.3859H49.3773C49.2441 25.3881 49.1127 25.4166 48.9907 25.47C48.8687 25.5233 48.7585 25.6003 48.6664 25.6965C48.5743 25.7927 48.5023 25.9062 48.4544 26.0305C48.4066 26.1548 48.3838 26.2873 48.3875 26.4204C48.4211 28.098 48.449 29.5351 48.477 30.9554C48.5833 35.0542 48.5106 41.071 48.3708 45.5445C48.3037 48.2509 48.2254 51.4439 48.1583 54.0441L48.0576 133.023C48.0569 133.202 48.0917 133.38 48.1601 133.545C48.2284 133.711 48.329 133.861 48.4559 133.988C48.5828 134.114 48.7336 134.214 48.8994 134.282C49.0653 134.349 49.2429 134.383 49.422 134.382H80.5902L97.2256 134.119L106.625 134.214C119.425 134.052 132.219 133.963 142.709 133.756C147.629 133.655 156.626 133.196 155.788 132.783C155.374 132.576 152.517 132.369 145.521 132.173C138.526 131.977 127.415 131.782 110.45 131.692C102.208 131.614 70.6034 131.39 51.0883 131.346V104.863C51.0883 101.944 51.2058 98.7116 51.2002 95.3565C51.2002 91.8448 51.0492 89.0657 51.0548 85.5708C51.0604 82.0759 51.2393 79.5987 51.2449 75.6118C51.2449 70.7413 51.0716 66.5362 51.0324 62.1914C50.9206 49.6713 50.9541 36.9163 50.9877 28.0029C59.8282 28.0029 65.7498 28.0309 70.6873 28.0029L93.3338 27.6953L154.708 27.7792L155.022 47.5631V81.0191C155.022 92.2307 155.083 103.275 155.229 113.591C155.368 123.579 155.575 133.213 155.855 132.805C156.134 132.397 156.531 131.396 156.912 122.919C157.124 118.149 157.32 107.714 157.538 98.4097C157.667 92.1245 157.717 84.5755 157.655 77.5521Z" fill="#579BF9"/>
<path d="M181.213 63.2974C178.87 63.1241 176.992 63.0067 175.241 62.9172C171.165 62.7103 160.558 63.5043 179.575 65.6572C179.351 67.7541 179.122 70.1306 178.87 72.8539C178.311 78.675 175.258 109.374 174.828 114.927C174.727 116.297 174.447 117.807 174.308 119.4C174.168 120.994 174.19 122.364 174.039 124.002C173.888 125.641 173.603 126.798 173.424 128.649C173.212 130.936 173.206 132.921 173.061 134.968C172.501 142.797 171.657 150.737 171.126 156.396L168.99 156.211L158.366 155.551L129.389 152.767L118.972 152.152C108.694 151.207 97.483 149.915 87.8038 149.289C83.1179 148.981 78.6445 148.813 78.9353 149.244C79.2261 149.674 79.8356 150.301 83.8784 151.117C86.1542 151.57 91.0358 152.18 95.3694 152.756C98.2882 153.141 101.777 153.455 105.015 153.645C107.324 153.779 120.32 154.836 124.424 155.166C128.338 155.484 132.191 155.725 135.814 155.976L142.133 156.832L156.878 158.219C160.613 158.426 163.588 158.526 166.708 158.778L172.457 159.242H172.485C172.796 159.265 173.104 159.164 173.341 158.961C173.577 158.757 173.724 158.468 173.748 158.157C173.989 155.127 174.168 152.392 174.268 149.77C174.391 147.482 174.635 145.203 175.001 142.942C175.197 141.684 175.398 140.191 175.56 138.977C177.238 121.352 178.859 103.916 180.403 87.5324C180.609 84.2053 180.755 81.907 180.889 79.7598C181.102 78.0207 181.292 76.4718 181.42 75.4317C181.705 71.5677 181.979 67.7038 182.225 64.5053V64.4661C182.24 64.1785 182.142 63.8964 181.954 63.6787C181.765 63.461 181.5 63.3244 181.213 63.2974Z" fill="#579BF9"/>
<path d="M70.2614 50.4365C70.4245 50.0921 70.6113 49.7595 70.8206 49.4411C71.6104 48.4085 72.6252 47.5696 73.788 46.9883C74.9507 46.4069 76.2307 46.0983 77.5307 46.086C78.4671 46.0056 79.4104 46.0717 80.3265 46.2817C81.699 46.7462 82.9306 47.5525 83.9052 48.6247C84.8635 49.6627 85.5948 50.8892 86.0524 52.2258C86.4942 53.4337 86.6116 54.6918 86.8968 54.608C87.0861 54.5477 87.2483 54.4231 87.3553 54.2557C87.5819 53.8731 87.7017 53.4366 87.702 52.9919C87.7188 52.4482 87.6624 51.9046 87.5342 51.3759C87.3649 50.6743 87.1231 49.9921 86.8129 49.3404C86.3482 48.3698 85.6695 47.5171 84.8278 46.8465C84.0669 46.2051 83.2269 45.6639 82.3283 45.236C81.3001 44.7506 80.1985 44.4388 79.0684 44.3134C77.8408 44.1893 76.6009 44.2935 75.4114 44.621C74.2596 44.7446 73.1462 45.1068 72.1421 45.6845C71.138 46.2621 70.2652 47.0425 69.5792 47.9761C68.9863 48.8623 68.5091 49.8207 68.1589 50.8279C67.6025 52.2357 67.4345 53.7672 67.6725 55.2622C67.7563 55.8661 67.8794 56.744 67.9688 57.4039C68.0385 57.8259 68.1375 58.2426 68.2652 58.6509C68.8117 59.9314 69.6123 61.0877 70.6186 62.0499C71.6248 63.0121 72.8158 63.7602 74.1194 64.249C75.423 64.7377 76.8123 64.9569 78.2031 64.8934C79.5938 64.8298 80.9573 64.4848 82.2109 63.8792C82.6186 63.6497 83.0108 63.3938 83.3852 63.1131C83.6983 62.8559 83.9779 62.6322 84.2239 62.3974L84.839 61.9109C85.0236 61.7599 85.1633 61.6033 85.2864 61.4915C86.4758 60.1198 87.2514 58.4386 87.523 56.6434C87.5591 56.1935 87.5136 55.7407 87.3888 55.3069C87.2546 54.8764 87.0701 54.5688 86.8744 54.5968C86.7738 54.5968 86.6731 54.7086 86.5724 54.9043C86.4468 55.2099 86.3367 55.5215 86.2425 55.8382C86.089 56.3931 85.9023 56.9384 85.6834 57.471C85.3444 58.2954 84.8927 59.0688 84.3414 59.7692C83.8641 60.3461 83.3111 60.8558 82.6974 61.2846C81.7848 61.9536 80.7463 62.431 79.6443 62.6882C78.5432 62.9409 77.4029 62.9732 76.2893 62.7832C75.598 62.671 74.9211 62.4835 74.2707 62.224C73.9279 62.0436 73.5989 61.838 73.2865 61.6089C73.102 61.5083 72.9287 61.4244 72.7665 61.3237C72.5881 61.231 72.4195 61.1205 72.2633 60.9938C71.9846 60.6994 71.725 60.3875 71.486 60.06C71.1135 59.6721 70.7678 59.2592 70.4515 58.8242C69.7487 57.7419 69.3507 56.4901 69.2996 55.2007C69.2613 54.14 69.3973 53.0803 69.7023 52.0637C69.8354 51.5044 70.0227 50.9594 70.2614 50.4365Z" fill="#579BF9"/>
<path d="M77.5067 61.0618C81.1477 61.0618 84.0993 58.1101 84.0993 54.469C84.0993 50.8279 81.1477 47.8762 77.5067 47.8762C73.8657 47.8762 70.9141 50.8279 70.9141 54.469C70.9141 58.1101 73.8657 61.0618 77.5067 61.0618Z" fill="#8AC4FF"/>
</svg>
